# File created by Blade
# Date/Time:  Tue Sep 30 19:31:19 2014
#---------------------------------------------------------
:version 1.10
:name HOM
:units
  mass 1.0
  length 1.000000
  angle deg
:documentation
     Acclaim Skeleton File
:root
   axis xyz
   order TX TY TZ RX RY RZ
   position 0.000000 0.000000 0.000000
   orientation 0 0 0
:bonedata
   begin
      id 1
      name Spine_dum
      direction 0.000000 1.000000 0.000000
      length 3.241213
      axis 0.0 0.0 0.0 xyz
   end
   begin
      id 2
      name LeftUpLeg_dum
      direction 1.000000 0.000000 0.000000
      length 3.434019
      axis 0.0 0.0 0.0 xyz
   end
   begin
      id 3
      name RightUpLeg_dum
      direction -1.000000 0.000000 0.000000
      length 3.434019
      axis 0.0 0.0 0.0 xyz
   end
   begin
      id 4
      name Spine
      direction 0.000000 1.000000 0.000000
      length 0.000000
      axis 0.0 0.0 0.0 xyz
      dof rx ry rz
   end
   begin
      id 5
      name Spine_dum1
      direction 0.000000 1.000000 0.000000
      length 18.382958
      axis 0.0 0.0 0.0 xyz
   end
   begin
      id 6
      name Spine_dum2
      direction 0.000000 1.000000 0.000000
      length 12.828261
      axis 0.0 0.0 0.0 xyz
   end
   begin
      id 7
      name Spine_dum3
      direction 0.000000 1.000000 0.000000
      length 12.828261
      axis 0.0 0.0 0.0 xyz
   end
   begin
      id 8
      name Head
      direction 0.000000 1.000000 0.000000
      length 4.527550
      axis 0.0 0.0 0.0 xyz
      dof rx ry rz
   end
   begin
      id 9
      name LeftShoulder
      direction 1.000000 0.000000 0.000000
      length 7.748055
      axis 0.0 0.0 -90.0 xyz
      dof rx ry rz
   end
   begin
      id 10
      name LeftArm
      direction 1.000000 0.000000 0.000000
      length 10.635614
      axis 0.0 0.0 -90.0 xyz
      dof rx ry rz
   end
   begin
      id 11
      name LeftForeArm
      direction 1.000000 0.000000 0.000000
      length 8.346755
      axis 0.0 0.0 -90.0 xyz
      dof ry rz rx
   end
   begin
      id 12
      name LeftHand
      direction 0.000000 0.000000 0.000000
      length 0.000000
      axis 0.0 0.0 -90.0 xyz
      dof rx ry rz
   end
   begin
      id 13
      name LeftHand_dum1
      direction 0.000000 0.000000 0.000000
      length 0.000000
      axis 0.0 0.0 -90.0 xyz
   end
   begin
      id 14
      name LeftHand_dum2
      direction 1.000000 0.000000 0.000000
      length 3.937000
      axis 0.0 0.0 -90.0 xyz
   end
   begin
      id 15
      name LeftHandThumb1
      direction 0.000000 0.000000 1.000000
      length 3.937000
      axis 0.0 0.0 -90.0 xyz
      dof rx rz ry
   end
   begin
      id 16
      name RightShoulder
      direction -1.000000 0.000000 0.000000
      length 7.748055
      axis 0.0 0.0 90.0 xyz
      dof rx ry rz
   end
   begin
      id 17
      name RightArm
      direction -1.000000 0.000000 0.000000
      length 10.635614
      axis 0.0 0.0 90.0 xyz
      dof rx ry rz
   end
   begin
      id 18
      name RightForeArm
      direction -1.000000 0.000000 0.000000
      length 8.346755
      axis 0.0 0.0 90.0 xyz
      dof ry rz rx
   end
   begin
      id 19
      name RightHand
      direction 0.000000 0.000000 0.000000
      length 0.000000
      axis 0.0 0.0 90.0 xyz
      dof rx ry rz
   end
   begin
      id 20
      name RightHand_dum1
      direction 0.000000 0.000000 0.000000
      length 0.000000
      axis 0.0 0.0 90.0 xyz
   end
   begin
      id 21
      name RightHand_dum2
      direction -1.000000 0.000000 0.000000
      length 3.937000
      axis 0.0 0.0 90.0 xyz
   end
   begin
      id 22
      name RightHandThumb1
      direction 0.000000 0.000000 1.000000
      length 3.937000
      axis 0.0 0.0 90.0 xyz
      dof rx rz ry
   end
   begin
      id 23
      name LeftUpLeg
      direction 0.000000 -1.000000 0.000000
      length 15.713025
      axis 0.0 0.0 0.0 xyz
      dof rx ry rz
   end
   begin
      id 24
      name LeftLeg
      direction 0.000000 -1.000000 0.000000
      length 14.435119
      axis 0.0 0.0 0.0 xyz
      dof rx ry rz
   end
   begin
      id 25
      name LeftFoot
      direction 0.000000 -0.258819 0.965926
      length 4.938895
      axis 15.0 0.0 0.0 xyz
      dof rx ry rz
   end
   begin
      id 26
      name LeftToeBase
      direction 0.000000 0.000000 1.000000
      length 2.952750
      axis 0.0 0.0 0.0 xyz
      dof rx ry rz
   end
   begin
      id 27
      name RightUpLeg
      direction 0.000000 -1.000000 0.000000
      length 15.713025
      axis 0.0 0.0 0.0 xyz
      dof rx ry rz
   end
   begin
      id 28
      name RightLeg
      direction 0.000000 -1.000000 0.000000
      length 14.435119
      axis 0.0 0.0 0.0 xyz
      dof rx ry rz
   end
   begin
      id 29
      name RightFoot
      direction 0.000000 -0.258819 0.965926
      length 4.938895
      axis 15.0 0.0 0.0 xyz
      dof rx ry rz
   end
   begin
      id 30
      name RightToeBase
      direction 0.000000 0.000000 1.000000
      length 2.952750
      axis 0.0 0.0 0.0 xyz
      dof rx ry rz
   end
:hierarchy
   begin
      root Spine_dum LeftUpLeg_dum RightUpLeg_dum
      Spine_dum Spine
      LeftUpLeg_dum LeftUpLeg
      RightUpLeg_dum RightUpLeg
      Spine Spine_dum1 Spine_dum2 Spine_dum3
      Spine_dum1 Head
      Spine_dum2 LeftShoulder
      Spine_dum3 RightShoulder
      LeftShoulder LeftArm
      LeftArm LeftForeArm
      LeftForeArm LeftHand
      LeftHand LeftHand_dum1 LeftHand_dum2
      LeftHand_dum1 LeftHandThumb1
      RightShoulder RightArm
      RightArm RightForeArm
      RightForeArm RightHand
      RightHand RightHand_dum1 RightHand_dum2
      RightHand_dum1 RightHandThumb1
      LeftUpLeg LeftLeg
      LeftLeg LeftFoot
      LeftFoot LeftToeBase
      RightUpLeg RightLeg
      RightLeg RightFoot
      RightFoot RightToeBase
   end

# File created by Blade
# Date/Time:  Thu Sep 25 17:54:10 2014
# Frame Rate: 120.000 fps
#------------------------------------------------------
:FULLY-SPECIFIED
:DEGREES
254
root 0.144015 32.535871 -5.463440 30.784621 3.392681 0.411387
Spine -36.325886 -3.338743 1.295187
Head 30.830857 -12.323414 -4.156619
LeftShoulder -20.958900 27.371736 45.237093
LeftArm 162.679084 -60.062918 -160.792538
LeftForeArm -58.329548 -0.000000 104.663651
LeftHand -8.981883 -0.000000 -17.605172
LeftHandThumb1 -26.253704 0.000000 33.147579
RightShoulder -55.939908 38.364938 -115.909650
RightArm 49.122209 28.513795 56.763075
RightForeArm 31.974897 -0.000000 139.418210
RightHand 9.932603 0.000000 -0.917585
RightHandThumb1 -24.326973 -0.000000 -32.862282
LeftUpLeg -23.566053 2.225360 0.101576
LeftLeg -1.420821 -0.000000 0.000000
LeftFoot -5.248636 -1.850940 -1.494904
LeftToeBase 2.773745 -0.000000 -0.000000
RightUpLeg -23.077942 -7.499875 4.273316
RightLeg -1.858747 -0.000000 0.000000
RightFoot -9.274072 -3.227820 11.343529
RightToeBase 15.087021 -0.000000 -0.000000
255
root 0.137557 32.535572 -5.455301 30.754587 3.399074 0.392414
Spine -36.313178 -3.275482 1.211814
Head 30.674329 -12.428387 -3.837459
LeftShoulder -21.165851 28.282276 45.060630
LeftArm 162.756137 -59.360714 -161.685596
LeftForeArm -58.256083 -0.000000 105.251638
LeftHand -9.083478 -0.000000 -17.387700
LeftHandThumb1 -26.253704 0.000000 33.147579
RightShoulder -56.569530 38.631575 -116.804940
RightArm 48.766229 27.840665 56.575679
RightForeArm 32.006441 0.000000 139.345162
RightHand 9.727417 -0.000000 -0.497043
RightHandThumb1 -24.326973 -0.000000 -32.862282
LeftUpLeg -23.524744 2.234472 0.130098
LeftLeg -1.419199 -0.000000 0.000000
LeftFoot -5.268490 -1.832614 -1.478105
LeftToeBase 2.764906 -0.000000 -0.000000
RightUpLeg -23.043065 -7.496127 4.297208
RightLeg -1.838830 -0.000000 0.000000
RightFoot -9.274601 -3.189325 11.396935
RightToeBase 15.053004 -0.000000 -0.000000
256
root 0.131719 32.535196 -5.448039 30.730513 3.400824 0.386205
Spine -36.300849 -3.220084 1.120162
Head 30.505139 -12.548243 -3.550974
LeftShoulder -21.503521 29.198021 44.933553
LeftArm 162.256470 -58.589705 -162.159464
LeftForeArm -58.113747 -0.000000 105.863810
LeftHand -9.086888 -0.000000 -17.304951
LeftHandThumb1 -26.253704 0.000000 33.147579
RightShoulder -57.123172 38.854572 -117.603435
RightArm 48.498951 27.210720 56.382572
RightForeArm 31.566805 -0.000000 139.285078
RightHand 9.540862 -0.000000 -0.414481
RightHandThumb1 -24.326973 -0.000000 -32.862282
LeftUpLeg -23.494616 2.229667 0.150712
LeftLeg -1.404245 -0.000000 0.000000
LeftFoot -5.281520 -1.817558 -1.484893
LeftToeBase 2.747537 -0.000000 -0.000000
RightUpLeg -23.012819 -7.490063 4.304448
RightLeg -1.822372 -0.000000 0.000000
RightFoot -9.276656 -3.174336 11.399276
RightToeBase 15.034291 -0.000000 -0.000000
257
root 0.125491 32.534191 -5.441483 30.737004 3.401149 0.375845
Spine -36.322367 -3.149900 1.033929
Head 30.338809 -12.663504 -3.315864
LeftShoulder -21.507704 29.353264 44.916796
LeftArm 162.137756 -58.564625 -162.617668
LeftForeArm -58.096564 -0.000000 106.233540
LeftHand -9.255786 -0.000000 -17.189513
LeftHandThumb1 -26.253704 0.000000 33.147579
RightShoulder -57.650549 39.071381 -118.361379
RightArm 48.244028 26.619653 56.163832
RightForeArm 31.395181 -0.000000 139.190023
RightHand 9.462897 -0.000000 -0.263353
RightHandThumb1 -24.326973 -0.000000 -32.862282
LeftUpLeg -23.496991 2.232123 0.171995
LeftLeg -1.390578 -0.000000 0.000000
LeftFoot -5.295912 -1.802607 -1.446482
LeftToeBase 2.692980 -0.000000 -0.000000
RightUpLeg -23.008250 -7.466114 4.316244
RightLeg -1.821566 -0.000000 0.000000
RightFoot -9.287902 -3.194714 11.353781
RightToeBase 15.003051 -0.000000 -0.000000
258
root 0.118312 32.534265 -5.434120 30.715822 3.402961 0.356470
Spine -36.321062 -3.092715 0.963011
Head 30.204163 -12.796333 -3.132423
LeftShoulder -21.660474 29.947680 44.769220
LeftArm 162.004984 -58.103181 -163.153235
LeftForeArm -57.998202 -0.000000 106.623216
LeftHand -9.179256 0.000000 -17.165868
LeftHandThumb1 -26.253704 0.000000 33.147579
RightShoulder -58.163625 39.301684 -119.107506
RightArm 48.035112 26.087973 56.029494
RightForeArm 31.303317 -0.000000 139.086001
RightHand 9.377111 -0.000000 -0.250158
RightHandThumb1 -24.326973 -0.000000 -32.862282
LeftUpLeg -23.464182 2.220662 0.212430
LeftLeg -1.387402 -0.000000 0.000000
LeftFoot -5.314033 -1.770726 -1.456561
LeftToeBase 2.698905 -0.000000 -0.000000
RightUpLeg -23.002074 -7.521318 4.372952
RightLeg -1.776668 -0.000000 0.000000
RightFoot -9.291118 -3.123192 11.361219
RightToeBase 14.993461 -0.000000 -0.000000
259
root 0.111806 32.534184 -5.426871 30.681673 3.386840 0.349118
Spine -36.303809 -3.013722 0.849411
Head 30.074829 -12.955276 -2.936386
LeftShoulder -21.898204 30.961787 44.513009
LeftArm 161.932294 -57.200276 -163.842515
LeftForeArm -57.906095 -0.000000 107.096041
LeftHand -9.167130 -0.000000 -17.062889
LeftHandThumb1 -26.253704 0.000000 33.147579
RightShoulder -58.713544 39.545530 -119.887223
RightArm 47.831026 25.559655 55.914538
RightForeArm 31.227731 -0.000000 138.969099
RightHand 9.237185 -0.000000 -0.068382
RightHandThumb1 -24.326973 -0.000000 -32.862282
LeftUpLeg -23.414258 2.239971 0.223315
LeftLeg -1.389805 -0.000000 0.000000
LeftFoot -5.326260 -1.753429 -1.451341
LeftToeBase 2.714707 -0.000000 -0.000000
RightUpLeg -22.951688 -7.479368 4.365572
RightLeg -1.778513 -0.000000 0.000000
RightFoot -9.304773 -3.146569 11.353691
RightToeBase 15.036787 -0.000000 -0.000000
260
root 0.104503 32.533854 -5.420142 30.650424 3.375467 0.339994
Spine -36.291927 -2.927660 0.745943
Head 29.937953 -13.146596 -2.771359
LeftShoulder -22.049310 31.534259 44.317721
LeftArm 161.744470 -56.737200 -164.250333
LeftForeArm -57.746127 -0.000000 107.493854
LeftHand -9.145303 0.000000 -16.893888
LeftHandThumb1 -26.253704 0.000000 33.147579
RightShoulder -59.221160 39.775147 -120.639364
RightArm 47.642996 25.109921 55.847945
RightForeArm 31.195234 -0.000000 138.831109
RightHand 9.150693 -0.000000 -0.058259
RightHandThumb1 -24.326973 -0.000000 -32.862282
LeftUpLeg -23.372624 2.245616 0.245777
LeftLeg -1.384535 -0.000000 0.000000
LeftFoot -5.336670 -1.738782 -1.480874
LeftToeBase 2.684326 -0.000000 -0.000000
RightUpLeg -22.906462 -7.480712 4.380465
RightLeg -1.786709 -0.000000 0.000000
RightFoot -9.256167 -3.101501 11.433285
RightToeBase 14.871827 -0.000000 -0.000000
261
root 0.097593 32.533606 -5.414423 30.632875 3.346913 0.319947
Spine -36.300422 -2.818875 0.671280
Head 29.747077 -13.127561 -2.462971
LeftShoulder -22.103419 31.499138 44.167701
LeftArm 161.414316 -56.836074 -164.237246
LeftForeArm -57.559586 -0.000000 107.778064
LeftHand -9.196460 -0.000000 -16.803605
LeftHandThumb1 -26.253704 0.000000 33.147579
RightShoulder -59.628551 39.953324 -121.320258
RightArm 47.546889 24.774508 55.885659
RightForeArm 31.436567 -0.000000 138.683741
RightHand 9.155670 -0.000000 0.009014
RightHandThumb1 -24.326973 -0.000000 -32.862282
LeftUpLeg -23.346396 2.274673 0.263516
LeftLeg -1.377001 -0.000000 0.000000
LeftFoot -5.359442 -1.720298 -1.477703
LeftToeBase 2.692113 -0.000000 -0.000000
RightUpLeg -22.886387 -7.450962 4.396526
RightLeg -1.772894 -0.000000 0.000000
RightFoot -9.295294 -3.058603 11.351823
RightToeBase 15.240591 -0.000000 -0.000000
262
root 0.091107 32.533133 -5.408658 30.590902 3.331197 0.316089
Spine -36.275511 -2.769761 0.586654
Head 29.593133 -13.204469 -2.251178
LeftShoulder -22.377701 32.428447 43.988112
LeftArm 160.989318 -56.001783 -164.695442
LeftForeArm -57.454303 -0.000000 108.293330
LeftHand -9.354027 -0.000000 -16.754658
LeftHandThumb1 -26.253704 0.000000 33.147579
RightShoulder -60.225828 40.241291 -122.218983
RightArm 47.273794 24.324862 55.865792
RightForeArm 31.406209 -0.000000 138.594113
RightHand 9.228020 0.000000 -0.119338
RightHandThumb1 -24.326973 -0.000000 -32.862282
LeftUpLeg -23.292644 2.272252 0.282800
LeftLeg -1.375985 -0.000000 0.000000
LeftFoot -5.371289 -1.697542 -1.471320
LeftToeBase 2.697777 -0.000000 -0.000000
RightUpLeg -22.810487 -7.414935 4.384129
RightLeg -1.818589 -0.000000 0.000000
RightFoot -9.290107 -3.070826 11.380436
RightToeBase 15.270171 -0.000000 -0.000000
263
root 0.085261 32.532958 -5.404077 30.558021 3.307375 0.315999
Spine -36.254334 -2.709342 0.485150
Head 29.440423 -13.365492 -2.086599
LeftShoulder -22.478446 32.969978 43.827535
LeftArm 160.875859 -55.580312 -165.175477
LeftForeArm -57.429091 0.000000 108.685334
LeftHand -9.418503 0.000000 -16.548772
LeftHandThumb1 -26.253704 0.000000 33.147579
RightShoulder -60.665864 40.429441 -122.904793
RightArm 47.129401 24.019921 55.890694
RightForeArm 31.459634 -0.000000 138.513334
RightHand 9.147098 -0.000000 -0.139965
RightHandThumb1 -24.326973 -0.000000 -32.862282
LeftUpLeg -23.249119 2.262082 0.295474
LeftLeg -1.370954 -0.000000 0.000000
LeftFoot -5.387435 -1.651992 -1.476219
LeftToeBase 2.725081 -0.000000 -0.000000
RightUpLeg -22.767388 -7.395198 4.379337
RightLeg -1.824789 -0.000000 0.000000
RightFoot -9.282813 -3.056007 11.389927
RightToeBase 15.295655 -0.000000 -0.000000
264
root 0.079623 32.533217 -5.399117 30.516115 3.277684 0.316308
Spine -36.224458 -2.652624 0.393288
Head 29.278823 -13.592951 -1.983569
LeftShoulder -22.651705 33.419797 43.635015
LeftArm 160.555206 -55.249100 -165.377094
LeftForeArm -57.299943 0.000000 109.038198
LeftHand -9.482103 -0.000000 -16.140949
LeftHandThumb1 -26.253704 0.000000 33.147579
RightShoulder -60.870028 40.461126 -123.248297
RightArm 47.242102 23.896662 56.026973
RightForeArm 31.590243 0.000000 138.474725
RightHand 9.097794 -0.000000 -0.131673
RightHandThumb1 -24.326973 -0.000000 -32.862282
LeftUpLeg -23.201339 2.288271 0.293162
LeftLeg -1.359669 -0.000000 0.000000
LeftFoot -5.392157 -1.649642 -1.489656
LeftToeBase 2.716959 -0.000000 -0.000000
RightUpLeg -22.717029 -7.390665 4.378160
RightLeg -1.829951 -0.000000 0.000000
RightFoot -9.294129 -3.038125 11.365274
RightToeBase 15.344745 -0.000000 -0.000000
